<svg width="186" height="60" viewBox="0 0 186 60" fill="none" xmlns="http://www.w3.org/2000/svg">
<rect width="186" height="60" fill="white"/>
<path d="M35.403 49H46.2435L33.0765 10.984H19.662L7.0395 49H17.385L19.068 43.3075H33.72L35.403 49ZM21.246 35.6845L25.206 22.171L26.3445 17.716L27.4335 22.171L31.443 35.6845H21.246ZM81.9322 10.984L75.3982 35.14L74.1112 41.0305L72.9232 35.14L66.8842 10.984H50.8957V49H60.4492V22.3195L60.3502 18.112L61.4392 22.3195L69.2602 49H78.9127L86.7337 22.2205L87.8722 17.914L87.7237 22.27V49H97.2277V10.984H81.9322ZM116.781 40.5355L135.393 18.3595V10.984H104.059V19.597H121.384L103.416 41.6245V49H135.69V40.5355H116.781Z" fill="black"/>
<path d="M165 46H175C176.105 46 177 45.1046 177 44V34" stroke="#D8D8D8" stroke-width="6"/>
<path d="M145 26V16C145 14.8954 145.895 14 147 14H157" stroke="#10CDFF" stroke-width="6"/>
<path d="M157 46L147 46C145.895 46 145 45.1046 145 44L145 34" stroke="#ABEA4C" stroke-width="6"/>
</svg>
